<svg xmlns="http://www.w3.org/2000/svg" data-name="Layer 32 copy 14" viewBox="0 0 100 125" x="0px" y="0px"><path d="M24.19,87.47h.1a.5.5,0,0,0,.49-.4l.2-1a.5.5,0,0,0-.39-.59.51.51,0,0,0-.59.39l-.2,1A.5.5,0,0,0,24.19,87.47Z"/><path d="M89.76,79.5c-.46-1.39-2.8-11.45-4.53-21.26C83.37,47.7,75,39.89,71.92,38.55c-2.84-1.23-15.07-3.4-16.81-3.71l-3-4.06a3.5,3.5,0,0,0,.46-.53c1-1.41,1.32-3.51.83-6.25a8.63,8.63,0,0,0-1.06-3.12c.08-4.95-1-8.42-3-10.31a5.42,5.42,0,0,0-3.49-1.42,7.48,7.48,0,0,0-4.06-3.68c-3.67-1.6-8.1-1.19-12.16,1.14-7.93,4.54-9.34,13.29-7.8,17.77.54,1.57,1.45,2.5,2.48,2.57.23.69.51,1.47.83,2.3-.94,1.32-1,3.55.1,5.73a7.17,7.17,0,0,0,2.6,3,3.83,3.83,0,0,0,2,.63,1.9,1.9,0,0,0,.25,0,17.26,17.26,0,0,0,4.8,4.52c-2,1.42-8.8,6.43-10.4,8.73a74,74,0,0,1-11.9-.77.47.47,0,0,0-.4.09.49.49,0,0,0-.2.37l-2,33.25a.51.51,0,0,0,.13.37.54.54,0,0,0,.35.16c1.21.06,2.38.14,3.55.21,0,1,.11,1.88.14,2.19a.49.49,0,0,0,.2.36,17.11,17.11,0,0,1,1.88,1.54,2.16,2.16,0,0,0,.37.39,11.7,11.7,0,0,0,3.11,3.53,11.53,11.53,0,0,0,5.74,2.06h.13a9.25,9.25,0,0,0,5.71-2.49,14.65,14.65,0,0,0,1.24-1.9l-.23,3.86a.5.5,0,0,0,.13.37.52.52,0,0,0,.37.16h42.5a.5.5,0,0,0,.38-.17.49.49,0,0,0,.12-.39l-.92-8.34a22.28,22.28,0,0,0,8.22,2,7.88,7.88,0,0,0,4.46-1.18c1.78-1.19,2.72-3.26,2.72-6A4.43,4.43,0,0,0,89.76,79.5ZM87,86.64c-2.39,1.59-6.56,1.28-11.77-.88-1.06-.45-2.09-.92-3.16-1.44a.5.5,0,0,0-.45.9c.74.36,1.46.69,2.19,1l.93,8.36H33.28l.38-6.42h0V87.7a6.35,6.35,0,0,0,0-1.23c5.3-.1,10.09-.75,14.27-2.62a.51.51,0,0,0,.29-.44l.35-7.63c2.18,1.91,3.4,1.94,5.75,2,.69,0,1.49,0,2.47.07,2.23.14,4.7,1.63,7.82,3.51,1.16.7,2.48,1.49,3.91,2.29a.5.5,0,0,0,.68-.2.51.51,0,0,0-.2-.68c-1.41-.78-2.66-1.54-3.88-2.27-3.24-2-5.8-3.49-8.27-3.64-1-.06-1.81-.08-2.52-.08-2.36,0-3.24,0-5.26-1.85L49,74.82a26.64,26.64,0,0,0-10.31-2.14c-.17-.11-.39-.3-.4-.46s.15-.32.4-.51c.85.07,4.43.37,5.36.42l.73,0,1.09,0c.52,0,1,0,1.29,0a.52.52,0,0,0,.55-.45.51.51,0,0,0-.45-.55,13.24,13.24,0,0,0-1.42,0c-.57,0-1.21,0-1.74,0-1-.06-4.84-.38-5.43-.42-.23-.1-.63-.34-.69-.61s.08-.41.32-.68a21.35,21.35,0,0,0,4,0,20.77,20.77,0,0,1,5.63.16l.13,0a.5.5,0,0,0,.48-.38.5.5,0,0,0-.35-.61,21.71,21.71,0,0,0-6-.18,21.09,21.09,0,0,1-3.7,0,1.18,1.18,0,0,1,0-.92c.17-.27.64-.33,1-.33a.48.48,0,0,0,.17-.05.46.46,0,0,0,.2.05h0c.25,0,6.05-.6,7.18-.85a4,4,0,0,1,1.64,0,2.88,2.88,0,0,0,.8.06.5.5,0,0,0,.42-.56.5.5,0,0,0-.56-.43,2.12,2.12,0,0,1-.49-.06,5,5,0,0,0-2,0c-1.07.24-7,.83-7,.83h0a.86.86,0,0,1-.11-.62c.09-.24.45-.38.74-.45,2.63-.64,4.54-1.07,5.87-1.38,1.14-.26,1.86-.43,2.26-.54,1-.3,4.26-.71,5,.62a13.34,13.34,0,0,0,3.11,3.69c1.61,1.24,3.76,2.61,3.78,2.62a.31.31,0,0,0,.13.06c.26.08,6.42,1.87,8.89,2.36l1.19.21c12.42,2.07,18.71,5,18.71,8.71C89.23,83.89,88.47,85.63,87,86.64Zm-61.43,8h-.1a10.57,10.57,0,0,1-5.24-1.91,7.82,7.82,0,0,1-1.87-1.85,5.06,5.06,0,0,0,1.06.12h0C19.45,91,21,91,22,91a1.52,1.52,0,0,1,.65.06,2.39,2.39,0,0,0,.63.09,4.44,4.44,0,0,0,1-.14c1.28-.32,2.91-.88,3.44-1.76a4.9,4.9,0,0,0,.73-2.8c1.33,0,2.65.09,3.92.09h.34v1.18a10.43,10.43,0,0,1-2.21,4.84A8.52,8.52,0,0,1,25.53,94.59ZM11,84.34l2-32.19c7.65,1.24,30.5.86,35.81-1.88l-.12,2.65a.51.51,0,0,0,.48.53.5.5,0,0,0,.52-.48l.17-3.72a.5.5,0,0,0-.92-.29c-1.1,1.75-12.85,2.82-23.16,2.87,1.72-1.9,6.7-5.73,10-8.09l.13-.1a9.89,9.89,0,0,0,3.22.94,10.56,10.56,0,0,0,1.34.08h.16a6.47,6.47,0,0,0,4.67,1.73,10.72,10.72,0,0,0,2.2-.24c3.35-.71,6.46-2.83,7.24-4.93a.52.52,0,0,0-.3-.65.5.5,0,0,0-.64.3c-.66,1.78-3.51,3.67-6.5,4.3A7.18,7.18,0,0,1,42,44.52c4.3-.75,5.78-4.56,6.52-7.6a.5.5,0,0,0-.37-.61.5.5,0,0,0-.6.37c-.86,3.56-2.59,7.56-8.37,6.91-3.22-.36-5.9-2.53-8-5.32,1.64-.9,2.06-3.39,1.07-5.92a1.06,1.06,0,0,1,1.31-.27,6.21,6.21,0,0,0,5.42,3.53,5.22,5.22,0,0,0,1.89-.35,5.45,5.45,0,0,0,3.14-3.2,6.74,6.74,0,0,0-3.18-8.27,5.4,5.4,0,0,0-4.47-.28A6,6,0,0,0,33,30.94a2,2,0,0,0-1.29.44c-1.4-2.58-3.79-3.91-5.59-3-.08,0-.15.11-.22.15-.23-.59-.43-1.15-.61-1.67a22.4,22.4,0,0,0,6.16-2,.5.5,0,0,0,.23-.67A.51.51,0,0,0,31,24a21.83,21.83,0,0,1-6.5,2c-.68.1-1.34-.61-1.79-1.9-1.43-4.16-.08-12.31,7.36-16.58,5.18-3,9.28-1.95,11.26-1.08,2.18,1,3.38,2.39,3.61,3.38a.5.5,0,0,0,.55.39,4.18,4.18,0,0,1,3.12,1.16c1.73,1.55,2.67,4.53,2.73,8.66a2.31,2.31,0,0,0-1.77-.32c-1.18.34-2,1.76-2.41,4.34a.48.48,0,0,0,0,.12l.23,3.79H46.37L43,21.78a.52.52,0,0,0-.54-.25c-.1,0-2.39.45-4.14-2.69a.5.5,0,0,0-.85,0,16,16,0,0,1-3.62,3.47.5.5,0,0,0-.12.7.51.51,0,0,0,.7.11A18.38,18.38,0,0,0,37.84,20a5,5,0,0,0,4.45,2.6l3.35,6.09a.51.51,0,0,0,.44.26H48a.5.5,0,0,0,.5-.53l-.26-4.27a11.88,11.88,0,0,1,.38-1.6c.44-1.07,1.16-1.82,1.78-1.88a2.69,2.69,0,0,1,1.14.73,7.66,7.66,0,0,1,.95,2.81c.42,2.41.2,4.3-.64,5.47a2.73,2.73,0,0,1-1.69,1.16.5.5,0,0,0,.13,1,3.06,3.06,0,0,0,1.09-.41l3,4.11a13,13,0,0,1,0,2.69.5.5,0,1,0,1,.1,14.49,14.49,0,0,0,.07-2.37c2.74.48,13.61,2.46,16.14,3.56,2.89,1.27,10.93,8.77,12.73,18.94,1.26,7.13,3,15.2,4,19.2-3-2.66-9.06-4.26-14.62-5.31A77.93,77.93,0,0,0,70.77,61a.5.5,0,0,0-.64-.31.49.49,0,0,0-.3.63A79.37,79.37,0,0,1,72.56,72.1l-1.87-.33-1.16-.2c-2.29-.45-8-2.11-8.74-2.32-.36-.23-2.22-1.44-3.65-2.53a12.38,12.38,0,0,1-2.83-3.36c-.9-1.71-3.6-1.56-5.1-1.32l.19-4.3a.49.49,0,0,0-.47-.52.46.46,0,0,0-.52.47l-.21,4.54h0c-.39.11-1.1.27-2.21.53-1.34.3-3.25.74-5.88,1.38a1.85,1.85,0,0,0-1.45,1.09,1.61,1.61,0,0,0,0,1,1.65,1.65,0,0,0-1.11.73,2.21,2.21,0,0,0,0,1.81A1.73,1.73,0,0,0,37,70.3a1.68,1.68,0,0,0,.67,1,1.35,1.35,0,0,0-.37,1,1.83,1.83,0,0,0,1,1.35.43.43,0,0,0,.22.06,28,28,0,0,1,9.09,1.65l-.35,7.73c-5.38,2.32-11.86,2.62-19.19,2.33-.1-.58-.15-1.64-.19-2.41-.1-1.92-.17-3.12-.53-3.59a1.77,1.77,0,0,0-1.92-.59,1.88,1.88,0,0,0-1.57-1.23,1.25,1.25,0,0,0-1.21.72,1.3,1.3,0,0,0-1.14-.73c-.65,0-1.31.89-2,2.66L18.31,84.4l-.26-1.05c.17-.53.82-2.4,1.28-3.48a1.67,1.67,0,0,0,0-1.63,1.83,1.83,0,0,0-1.52-.68c-1.26,0-3.66,5.11-3.68,5.16a6.41,6.41,0,0,0-.18,1.8C13,84.46,12,84.39,11,84.34ZM26.13,34.53c-1.07-2.21-.86-4.62.46-5.26a1.63,1.63,0,0,1,.73-.16c1.25,0,2.79,1.22,3.68,3.06,1.07,2.21.87,4.62-.45,5.26a2.33,2.33,0,0,1-2.2-.31A6.34,6.34,0,0,1,26.13,34.53Zm8-3.46a5,5,0,0,1,2.51-6.6,4.24,4.24,0,0,1,1.53-.29,4.73,4.73,0,0,1,2.11.52,5.62,5.62,0,0,1,2.64,3,5.55,5.55,0,0,1,0,4,4.44,4.44,0,0,1-2.55,2.61A5,5,0,0,1,34.15,31.07Zm-19.09,52a18.45,18.45,0,0,1,2.82-4.51.85.85,0,0,1,.62.23.83.83,0,0,1-.09.69c-.55,1.3-1.33,3.59-1.36,3.69a.53.53,0,0,0,0,.28l.76,3a.49.49,0,0,0,.47.38.48.48,0,0,0,.49-.36l1.72-5.89a7.54,7.54,0,0,1,1-2c.23,0,.48.48.47,1.44v.15c-.16,1.42-1.2,5.36-1.21,5.4a.5.5,0,0,0,.35.61l.13,0a.51.51,0,0,0,.49-.37c0-.17,1.05-4,1.23-5.52a3.24,3.24,0,0,1,.75-1.73c.38.06.8.2.92,1.17h0a6,6,0,0,1,0,1c-.09,1.34-.26,2.81-.36,3.56a.5.5,0,0,0,.43.56h.07a.5.5,0,0,0,.49-.44c.1-.77.28-2.26.37-3.63a6.06,6.06,0,0,0,0-1,.93.93,0,0,1,.43-.06.65.65,0,0,1,.47.25,12.85,12.85,0,0,1,.34,3c.1,2,.17,2.91.47,3.31s-.07,1.54-.55,2.35h0c-.2.34-1,.86-2.81,1.3a1.94,1.94,0,0,1-1.12.05,2.87,2.87,0,0,0-.72-.1H21.9c-.95,0-2.46,0-2.5,0A3.22,3.22,0,0,1,17,89.06a12.46,12.46,0,0,0-1.93-1.66A19.37,19.37,0,0,1,15.06,83.07Z"/><path d="M68.46,57.93a.51.51,0,0,0,.45.29.54.54,0,0,0,.22,0,.51.51,0,0,0,.24-.67C68.06,54.76,67.1,54,67,54a.51.51,0,0,0-.59.82A9.06,9.06,0,0,1,68.46,57.93Z"/><path d="M36.16,37.73a.49.49,0,0,0-.06-.7.5.5,0,0,0-.7,0,1.22,1.22,0,0,1-.66.4,9.24,9.24,0,0,1-.63-2.75.52.52,0,0,0-.55-.45.5.5,0,0,0-.44.56c.39,3.59,1.2,3.63,1.47,3.64h.08A2.1,2.1,0,0,0,36.16,37.73Z"/><path d="M42.52,37.44a.51.51,0,0,0-.14-.7.5.5,0,0,0-.69.14c-.68,1-3,3.16-4.27,3.37a.51.51,0,0,0-.41.58.5.5,0,0,0,.49.41h.09C39.25,41,41.83,38.46,42.52,37.44Z"/>

</svg>