<!DOCTYPE svg PUBLIC "-//W3C//DTD SVG 1.1//EN" "http://www.w3.org/Graphics/SVG/1.1/DTD/svg11.dtd">
<!-- Uploaded to: SVG Repo, www.svgrepo.com, Transformed by: SVG Repo Mixer Tools -->
<svg version="1.1" id="Uploaded to svgrepo.com" xmlns="http://www.w3.org/2000/svg" xmlns:xlink="http://www.w3.org/1999/xlink" width="800px" height="800px" viewBox="-4.8 -4.8 41.60 41.60" xml:space="preserve" fill="#00039e" transform="rotate(0)">
<g id="SVGRepo_bgCarrier" stroke-width="0"/>
<g id="SVGRepo_tracerCarrier" stroke-linecap="round" stroke-linejoin="round" stroke="#CCCCCC" stroke-width="0.32"/>
<g id="SVGRepo_iconCarrier"> <style type="text/css"> .avocado_een{fill:#fafafa231F20;} .avocado_zes{fill:#fafafa;} .avocado_achttien{fill:#fafafaD1712A;} .st0{fill:#fafafa3D3935;} .st1{fill:#fafafaE0A838;} .st2{fill:#fafafa716558;} .st3{fill:#fafafaDBD2C1;} .st4{fill:#fafafaA3AEB5;} .st5{fill:#fafafa788287;} .st6{fill:#fafafaEAD13F;} .st7{fill:#fafafaCC4121;} .st8{fill:#fafafa8D3E93;} .st9{fill:#fafafa248EBC;} .st10{fill:#fafafa6F9B45;} .st11{fill:#fafafaAF9480;} .st12{fill:#fafafaC3CC6A;} </style> <g> <path class="avocado_zes" d="M29.5,3.738v22.523l-19-7.6v-7.323L29.5,3.738z M2.5,11.5v7h2v-7H2.5z"/> <g> <polygon class="avocado_achttien" points="12.5,19.462 12.5,22.5 7.5,22.5 7.5,19.5 10.5,19.5 10.5,10.5 4.5,10.5 4.5,19.5 5.5,19.5 5.5,24.5 14.5,24.5 14.5,20.262 "/> </g> <path class="avocado_een" d="M30,3l-19,7.6V10H4v1H2v8h2v1h1v5h10v-4l15,6V3z M3,18v-6h1v6H3z M5,11h5v8H5V11z M8,20h3v-0.6 l1,0.4V22H8L8,20z M14,24H6v-4h1l0,3h6v-2.8l1,0.4V24z M29,25.523l-18-7.2v-6.646l18-7.2V25.523z"/> </g> </g>
</svg>